<svg id="visual" viewBox="0 0 900 600" width="900" height="600" xmlns="http://www.w3.org/2000/svg" xmlns:xlink="http://www.w3.org/1999/xlink" version="1.1"><g transform="translate(389.54447038354994 261.8693489409352)"><path d="M103.5 -163.7C125.2 -147.1 127.6 -103.3 159.6 -63.9C191.6 -24.5 253.2 10.4 247.3 33.9C241.3 57.5 167.9 69.7 133 122.1C98.2 174.5 101.9 267.2 81.5 269.5C61 271.9 16.4 183.9 -25.4 144.9C-67.2 105.9 -106.1 115.8 -116.9 102C-127.7 88.3 -110.2 50.8 -105 21.2C-99.8 -8.4 -106.7 -30.2 -115.6 -70.3C-124.5 -110.3 -135.2 -168.7 -116.3 -186.6C-97.3 -204.4 -48.7 -181.7 -3.9 -175.7C40.9 -169.7 81.8 -180.3 103.5 -163.7" fill="#BB004B"></path></g></svg>